<!DOCTYPE svg PUBLIC "-//W3C//DTD SVG 1.1//EN" "http://www.w3.org/Graphics/SVG/1.1/DTD/svg11.dtd">

<!-- Uploaded to: SVG Repo, www.svgrepo.com, Transformed by: SVG Repo Mixer Tools -->
<svg height="256px" width="256px" version="1.1" id="Layer_1" xmlns="http://www.w3.org/2000/svg" xmlns:xlink="http://www.w3.org/1999/xlink" viewBox="0 0 512 512" xml:space="preserve" fill="#000000">

<g id="SVGRepo_bgCarrier" stroke-width="0"/>

    <g id="SVGRepo_tracerCarrier" stroke-linecap="round" stroke-linejoin="round"/>

    <g id="SVGRepo_iconCarrier"> <path style="fill:#808080;" d="M256,8.018c-132.25,0-239.459,99.552-239.459,222.354c0,78.978,44.348,148.332,111.177,187.779 v85.888l63.15-59.641c20.709,5.423,42.554,8.329,65.132,8.329c132.25,0,239.459-99.552,239.459-222.354S388.249,8.018,256,8.018z"/> <path style="fill:rgb(94, 92, 92);" d="M161.927,471.731v-62.132C95.098,370.152,50.75,300.799,50.75,221.82 c0-96.979,66.868-179.441,160.12-209.842C100.2,31.581,16.541,121.897,16.541,230.372c0,78.978,44.348,148.332,111.177,187.779 v85.888L161.927,471.731z"/> <polygon style="fill:#ef369d;" points="84.958,324.445 221.791,170.507 290.208,230.372 435.594,170.507 290.208,324.445 221.791,264.58 "/> <polygon style="fill:#85014c;" points="290.208,290.237 221.791,230.372 134.716,268.467 84.958,324.445 221.791,264.58 290.208,324.445 435.594,170.507 382.727,192.277 "/> <path d="M432.557,68.936c-3.213-3.046-8.289-2.909-11.335,0.305c-3.046,3.215-2.91,8.288,0.305,11.335 c42.505,40.278,65.914,93.477,65.914,149.796c0,118.186-103.825,214.337-231.441,214.337c-21.428,0-42.659-2.714-63.101-8.067 c-2.676-0.701-5.525,0.028-7.535,1.927l-49.628,46.87v-67.288c0-2.837-1.499-5.463-3.943-6.904 C64.647,371.611,24.559,303.995,24.559,230.372C24.559,112.186,128.383,16.035,256,16.035c47.712,0,93.521,13.337,132.476,38.568 c3.716,2.406,8.681,1.347,11.088-2.371c2.407-3.717,1.346-8.68-2.371-11.088C355.637,14.227,306.813,0,256,0 C190.008,0,127.938,23.89,81.222,67.269C34.342,110.8,8.524,168.724,8.524,230.372c0,39.565,10.956,78.593,31.686,112.863 c19.277,31.873,46.699,59.261,79.492,79.445v81.359c0,6.871,8.505,10.567,13.523,5.829l59.949-56.618 c20.426,4.974,41.538,7.495,62.827,7.495c65.992,0,128.062-23.89,174.779-67.269c46.879-43.531,72.697-101.456,72.697-163.103 C503.476,169.605,478.29,112.273,432.557,68.936z"/> <path d="M175.806,222.242c-3.311-2.942-8.378-2.644-11.319,0.666l-85.521,96.211c-2.394,2.693-2.678,6.779-0.678,9.775 c2.131,3.193,6.364,4.436,9.884,2.897l132.17-57.825l64.586,56.513c3.243,2.837,8.15,2.604,11.109-0.529l145.386-153.938 c2.604-2.758,2.895-7.093,0.686-10.175c-2.14-2.988-6.168-4.146-9.568-2.744l-140.792,57.973l-64.677-56.593 c-3.314-2.898-8.347-2.584-11.272,0.708l-22.805,25.656c-2.902,3.265-2.6,8.416,0.666,11.319c3.265,2.902,8.417,2.6,11.319-0.666 l17.521-19.71l62.429,54.627c2.291,2.003,5.517,2.538,8.332,1.38l110.888-45.659L289.679,313.328l-62.608-54.783 c-2.339-2.046-5.647-2.558-8.493-1.312l-103.337,45.211l61.231-68.885C179.414,230.251,179.115,225.183,175.806,222.242z"/> </g>

</svg>